<svg xmlns="http://www.w3.org/2000/svg" xmlns:xlink="http://www.w3.org/1999/xlink" width="160.859" height="36.564" viewBox="0 0 160.859 36.564">
  <defs>
    <clipPath id="clip-path">
      <rect id="Rectangle_8" data-name="Rectangle 8" width="160.859" height="36.564" transform="translate(40.622 677.888)" fill="none"/>
    </clipPath>
  </defs>
  <g id="Group_6" data-name="Group 6" transform="translate(-40.622 -677.888)">
    <rect id="Rectangle_6" data-name="Rectangle 6" width="55.193" height="1.184" transform="translate(85.628 713.24)" fill="#1a1818"/>
    <g id="Group_5" data-name="Group 5">
      <g id="Group_4" data-name="Group 4" clip-path="url(#clip-path)">
        <path id="Path_2" data-name="Path 2" d="M86.3,707.96V682.787h6.265c4.227,0,6.4,1.393,6.4,5.409v5.251c0,3.783-2.808,5.445-5.946,5.445H91.381v9.068Zm5.081-13.329h.832c1.857,0,1.673-.789,1.673-3.758s.184-3.638-1.673-3.638h-.832Z" fill="#c20a1e"/>
        <path id="Path_3" data-name="Path 3" d="M107.985,705.861h-.065c-.48,1.725-1.758,2.348-3.744,2.348-2.273,0-3.425-1.893-3.425-4.722l-.156-15.255h5.058v13.7c0,.862.064,1.794,1.025,1.794s1.089-.932,1.089-1.794v-13.7h5.058v19.736h-4.84Z" fill="#c20a1e"/>
        <path id="Path_4" data-name="Path 4" d="M119.7,690.1h.1a3.675,3.675,0,0,1,3.572-2.19c2.562,0,3.66,2.047,3.66,4.083v4.558h-5.059V694.1c0-.794-.224-1.622-1.056-1.622s-1.057.828-1.057,1.622v13.871h-5.059V688.232h4.9Z" fill="#c20a1e"/>
        <path id="Path_5" data-name="Path 5" d="M140.666,702.964c0,3.658-2.882,5.245-6.116,5.245s-6.115-1.587-6.115-5.245v-9.5c0-3.554,2.177-5.555,6.115-5.555s6.116,2,6.116,5.555Zm-7.172-.394c0,.725.256,1.38,1.056,1.38s1.057-.655,1.057-1.38v-9.144c0-.725-.256-1.38-1.057-1.38s-1.056.655-1.056,1.38Z" fill="#c20a1e"/>
        <path id="Path_6" data-name="Path 6" d="M153.456,699.7l-.055,2.655c0,4.437-2.9,5.834-5.175,5.834-3.323,0-5.387-2.371-5.387-6.37V689.316c0-5.505,2.038-6.869,5.348-6.869,3.237,0,5.269,1.675,5.269,5.785v2.241h-3.279v-1.427c-.032-2.2-.19-3.625-2.138-3.625-1.732,0-1.9,1.941-1.9,4.545V700.88c0,3.425.953,4.173,2.056,4.173,1.364,0,1.933-1.1,1.933-3.237V699.7Z" fill="#1a1818"/>
        <rect id="Rectangle_7" data-name="Rectangle 7" width="3.242" height="26.628" transform="translate(155.813 681.301)" fill="#1a1818"/>
        <path id="Path_7" data-name="Path 7" d="M172.019,701.22a10.435,10.435,0,0,1-.811,4.568,4.959,4.959,0,0,1-4.565,2.4,4.7,4.7,0,0,1-4.506-2.6,8.867,8.867,0,0,1-.715-4.367v-6.41c0-3.085.26-4.206,1.267-5.488a5.177,5.177,0,0,1,3.986-1.683,5.283,5.283,0,0,1,4.208,1.843c.811,1.042,1.136,2.4,1.136,4.567v4.688h-7.46v3.806c0,1.8.967,2.674,2.331,2.674,1.039,0,1.506-.471,1.8-1.713a10.522,10.522,0,0,0,.195-2.284Zm-3.071-5.809v-1.4c0-2.483-.668-3.645-2.226-3.645a1.9,1.9,0,0,0-1.773,1.241c-.358.722-.39,1.122-.39,3.806v.674h4.389Z" fill="#1a1818"/>
        <path id="Path_8" data-name="Path 8" d="M174.16,694.428v-1.041c0-2.2.357-3.365,1.364-4.327A5.875,5.875,0,0,1,179.3,687.9a4.884,4.884,0,0,1,3.851,1.482,5.379,5.379,0,0,1,.908,3.606v12.382a8.2,8.2,0,0,0,.263,2.561h-3.171l-.13-1.6a3.41,3.41,0,0,1-3.208,1.884,4.142,4.142,0,0,1-3.363-1.643,6.436,6.436,0,0,1-.941-4.006c0-3.408,2.7-4.959,4.71-5.92,2.142-1,2.643-2.213,2.643-3.655,0-1.643-.458-2.364-1.659-2.364a1.872,1.872,0,0,0-1.974,1.763,10.767,10.767,0,0,0-.129,2.043Zm4.209,5.061a3.3,3.3,0,0,0-1.722,3.246c0,1.516.664,2.374,1.9,2.374,1.363,0,2.381-1.205,2.381-2.909v-4.567a30.882,30.882,0,0,1-2.556,1.856" fill="#1a1818"/>
        <path id="Path_9" data-name="Path 9" d="M189.931,688.038v1.443a4.14,4.14,0,0,1,3.423-1.692,3.647,3.647,0,0,1,3.277,2.272c.455,1,.487,1.323.487,4.527v13.341h-3.261V694.308a5.532,5.532,0,0,0-.389-2.8,1.717,1.717,0,0,0-1.525-.882c-1.527,0-1.935,1.322-1.935,3.766v13.541h-3.26v-19.75Z" fill="#1a1818"/>
        <path id="Path_10" data-name="Path 10" d="M197.955,684.4H199.3v.4h-.441v1.752h-.474v-1.752h-.43Z" fill="#1a1818"/>
        <path id="Path_11" data-name="Path 11" d="M199.464,684.4h.695l.305,1.332.343-1.332h.674v2.156h-.444v-1.806l-.441,1.806h-.344l-.4-1.806v1.806h-.385Z" fill="#1a1818"/>
        <path id="Path_12" data-name="Path 12" d="M64.523,701.374v2.021l.078.05,1.942,1.239-.932,0h-.17V708.8H58.015v-4.122h-.17l-.932,0,4.815-3.073,1.467.936.261.167v-1.34Z" fill="#c20a1e"/>
        <path id="Path_13" data-name="Path 13" d="M64.444,694.637v4.992h5.015v5.048H68.071l-2.721-1.736v-2.4H62.628v.657l-.809-.516-.091-.058-.091.058-6.252,3.989H54v-5.048h5.015v-4.992Z" fill="#1a1818"/>
        <path id="Path_14" data-name="Path 14" d="M59.931,686.029c.988-1.712,2.606-1.712,3.594,0l4.443,7.7h2.9l-9.144-15.837-9.143,15.837h2.9Z" fill="#1a1818"/>
        <path id="Path_15" data-name="Path 15" d="M58.147,711.937H48.571c-1.977,0-2.786-1.4-1.8-3.113l4.588-7.936H48.453l-7.831,13.563H58.147Z" fill="#1a1818"/>
        <path id="Path_16" data-name="Path 16" d="M75.007,700.887h-2.9l4.578,7.938c.988,1.711.18,3.112-1.8,3.112H65.31v2.514H82.838Z" fill="#1a1818"/>
      </g>
    </g>
  </g>
</svg>
